<?xml version="1.0" encoding="UTF-8"?>
<svg xmlns="http://www.w3.org/2000/svg" version="1.1" xmlns:xlink="http://www.w3.org/1999/xlink" viewBox="0 0 9275.8 6016.4">
  <defs>
    <style>
      .cls-1 {
        clip-rule: evenodd;
      }

      .cls-1, .cls-2 {
        fill: none;
      }

      .cls-3 {
        display: none;
      }

      .cls-2 {
        isolation: isolate;
        opacity: .6;
        stroke: #231f20;
        stroke-width: 12px;
      }

      .cls-4 {
        clip-path: url(#clippath);
      }
    </style>
    <clipPath id="clippath">
      <polygon class="cls-1" points="5 296.8 9094.1 0 9280.8 5719.6 191.8 6016.4 5 296.8 5 296.8"/>
    </clipPath>
  </defs>
  <!-- Generator: Adobe Illustrator 28.6.0, SVG Export Plug-In . SVG Version: 1.2.0 Build 709)  -->
  <g>
    <g id="Background" class="cls-3">
      <g class="cls-4">
        <image width="2153" height="1303" transform="translate(5 296.8) rotate(-1.9) scale(4.2 4.4)" xlink:href="brain_regions_clean-1.png"/>
      </g>
    </g>
    <g id="Layer_1">
      <g id="brain_regions">
        <path id="PVa" class="cls-2" d="M4525.8,4796.5l-25.2-453.6-67.3,3,38.2,620.3-1.1,1.8-4.3,1.8-7.7.3.6,3.9,1.1,7.3,1.2,7.3,1.2,7.3,1.2,7.3,1.2,7.3,1.2,7.3,1.3,7.3,1.3,7.3,1.3,7.3,1.3,7.4,1.3,7.4.7,3.9,7.9-.4,4.9,1.6,4.1,3.1,12.1,10.4,5.2,2.1-5.8-58.4v-1.6c.1,0,5.7-20,5.7-20l.6-2.2,5.5-19.9.3-1.7,2.7-42.7v-1.2c0,0,3.9-42.5,3.9-42.5l.8-2.7,2-5.3-2.5-50.8v-1.4c0,0,5.2-27.7,5.2-27.7v-.9Z"/>
        <path id="PVT" class="cls-2" d="M4345.1,2931.9v9.7s0,9.7,0,9.7v9.8c0,0,.2,9.8.2,9.8l.2,9.8.2,9.8.2,9.8.3,9.7.3,9.7.3,9.6.3,9.6.4,9.5.4,9.5.4,9.4.5,9.3.5,9.2.5,9.2.5,9.1.5,9,.6,8.9.6,8.8.6,8.7.6,8.6.6,8.5.6,8.4.7,8.3.7,8.2.7,8.1.7,8,.7,7.9.7,7.8.7,7.7.7,7.6.7,7.5.7,7.4.8,7.3.8,7.2.8,7.1.8,7,.8,6.9.8,6.8.8,6.7.8,6.6.8,6.6.8,6.5.8,6.4.8,6.3.8,6.2.8,6.2.8,6.1.8,6,.8,5.9.8,5.9.8,5.8.8,5.7.8,5.7.8,5.6.8,5.5.8,5.5.8,5.4.8,5.4.8,5.3.8,5.3.8,5.2.8,5.2.8,5.1.8,5.1.8,5,.8,5,.8,5,.8,4.9.7,4.9.7,4.9.7,4.8.7,4.8.7,4.8.7,4.8.7,4.7.7,4.7.7,4.7.7,4.7.7,4.7.7,4.7.7,4.6.7,4.6.6,4.6.6,4.6.6,4.6.6,4.6.6,4.6.6,4.6.6,4.6.6,4.6.6,4.6.6,4.6.6,4.6.6,4.6.5,4.6.5,4.7.5,4.7.5,4.7.5,4.7.5,4.7.5,4.7.5,4.7.5,4.8.2,1.7,58.3-3.5h.9c0,0,57.9-7.8,57.9-7.8l2.2-3.7,1-2,3.6-18.5-2.7-3.1-1.8-1.9-9.1-11.5-4.7-.3-8.4-45v-.3s-10.6-99-10.6-99v-.4s4.7-41.1,4.7-41.1l.2-.9,6.4-26.6.5-1.4,6.9-15.5.6-1.5,7.1-22.2.6-1.6,7.2-16.4.6-1.6,7.4-23.6.5-1.5,7.7-24.5.7-1.8,7.7-17.9.7-1.8,8.1-25.9.4-1.5,10.5-33.8,2.9-.7,4.2-21.3.7-2.2,8.5-19.6,1-2.2,8.7-19.7,1-2.2,9-19.8,1.4-2.5,8.2-10.7,3.2-2.8,4.8-2.7,5-2.6,5-2.5,4.9-2.5,4.9-2.5,4.9-2.5,4.9-2.5,4.9-2.5,4.9-2.5,4.9-2.4,4.8-2.6,2.2-2.7,5.7-22.1-4.1-26.2-.5-2.9-4-26.5-27.6-6.5-3-.5-26.7-2.1-3-.2-27-1.8-2.7-.3-38-4.3-1.6-.3-121.8-19h-1.1s-70.2,8.3-70.2,8.3l-2.8.6-8,1.2v4.2ZM4513.7,3579l-2.2,2.3-2.5,1-57.9,4.7-2.7-.5-1.6-1.6-1.8-17.4,1.2-1.8,3.9-2.7,4.1-2.5,3-1,31.9-2.4,3.2.5,4.6,1.9,4.4,2,3,1.9,8.9,6,4,1.1-3.5,8.5Z"/>
        <path id="PVH" class="cls-2" d="M4713.7,3937.7l-.6-2-6.4-9.1-2.5-2.4-3.8-2.5-4-2.2-3.6-1.3-12.4-2.4h-1.8c0,0-102.3,23.7-102.3,23.7h-.6c0,.1-95.5,16-95.5,16l-.3-3.5-47.9,8.3-2.3.3-6.5.4v3.2s0,7,0,7v7.1s0,7.1,0,7.1v7.1s0,7.1,0,7.1v7.2s0,5.3,0,5.3l2.8-.2,8.4,7.1,1.8,2.6,6.4,11,.5,1.7-.8,77.2v.4s-8.7,233.9-8.7,233.9l67.3-3,14.7-4.6,3.9-2.3,4.3-3.8,3.9-2.3,14.6-4.8,2.6-5.5,3.5-4.4,4-4.2,2.7-3.7,6.7-12.6,1.6-3.2,6.4-12.8.9-2.5,7.7-29.3.5-1.8,7.6-29.4.6-2.1,7.2-21.4.8-2.4,7.4-21.4,1.2-2.8,6.4-13.1,1.6-3.3,6.4-13.2,1.6-3.3,6.4-13.2,1.6-3.3,6.4-13.3,1.6-3.3,6.7-13.2,2.6-4,3.7-4.8,2.6-4,6.9-13.2,2.6-4,3.7-4.8,2.6-4,6.9-13.2,2.6-4,3.7-4.8,2.6-4,6.9-13.1,2.6-4,3.7-4.8,2.6-4,6.6-13.1,1.6-3.3,6.3-13.1.6-2.4.3-26.3Z"/>
        <path id="SBPV" class="cls-2" d="M4733.1,4943.2l-1.8-27.2-1.7-7.1-7.5-2.1-3.6-5.4-12.5-35.2-.4-1.2-20.8-57.6-.3-.8-21.8-73.9v-.5c-.1,0-31.7-248.5-31.7-248.5l-2.3-.7-14.1-69.6-.2-1.2-9.6-37.2-.9-2.3-6.9-12.1-1.7-3-7.2-11.7-2.8-3.3-4.1-3.6-4.3-3.4-3.8-2.2-13.1-5.3-3.4-.9-14.8-2.2-14.6,4.8-3.9,2.3-4.3,3.8-3.9,2.3-14.7,4.6,25.2,453.6v.9s-5.1,27.7-5.1,27.7v1.4c0,0,2.4,50.8,2.4,50.8l16.8-3.4,3.8-1.2,14.2-6.1,4-2.4,4.5-3.4,4-2.4,14.1-5.9,2.9-.6,35.6,1,3.7,1.3,5.5,3.6,5.4,3.7,5.4,3.7,5.3,3.8,3.7,3.4,10.2,11.6,2.5,2.9,10,11.7,2.5,2.9,10.1,11.6,2.5,2.9,10.2,11.6,2.6,2.9,10.3,11.5,2.6,2.9,11.6,10.8,5,2.3.9-12.5v-2.3Z"/>
        <path id="AMv" class="cls-2" d="M5313,3293.9l-21.8,4.5-3.2.2-4.1-.4-3.9-.6-2.7-.8-6.9-3.3-1.2-.8-8.1-6.6-1.2-.8-6.6-3.3-1.7-.8-7-3.1-2.7-.7-3.8-.5-2.7-.7-7.2-2.9-2.6-.7-3.9-.4-4-.3-3.9-.3-3.9-.3-3.9-.3-3.9-.3-3.9-.3-3.9-.3-3.9-.3-3.9-.4-3.9-.4-4-.3h-3.5c0,.1-11.9,1.3-11.9,1.3l-3.6.2-5.7,1.1-2.8,7.3-.6,1.3-6.6,15-.5,1.1-6.4,11-.7,1.2-6.6,10.8-.7,1.2-6.8,10.6-1.1,1.4-6,6.9-1.1,1.4-7.1,10.5-.8,1.2-7.2,10.6-1.2,1.4-6.3,6.9-1.2,1.4-7.6,10.7-1.2,1.4-6.5,6.9-1.6,1.7-6.6,7-1.7,1.8-6.6,7-1.2,1.5-7.9,11-1.2,1.5-6.7,7.1-1.7,1.8-6.8,7.2-1.7,1.8-6.7,7.3-1.2,1.5-8,11.5-1.2,1.6-6.8,7.4-1.7,1.9-6.8,7.5-1.7,1.9-6.8,7.6-1.7,1.9-6.8,7.7-1.7,1.9-7.1,7.8-2.8,2.4-4.1,2.9-4.2,2.9-4.2,2.9-4.2,2.9-4.2,2.9-4.3,2.9-3.8,2.2-12.2,6.7-2.6,2.5,6-.3,4,1.1,3.9,1.2,3.9,1.2,3.9,1.2,3.9,1.2,3.9,1.2,3.9,1.2,4,1.1,3.2.2,22.6-2.9,14.5-5.2,2.9-1.1,21.8-9,2.8-1.3,13.1-6.4,3.3-1.6,13-6.4,3.3-1.6,13-6.4,3.3-1.6,12.9-6.5,4-2,5.9-2.6,3.2-3.3,5.1-2.7,3.2-3.3,5.1-2.7,5.7-2.7,4.8-2.6,5.7-2.6,3.2-3.3,5.1-2.7,7.9-1.9,3.2-3.3,5.1-2.7,3.2-3.3,5.1-2.7,3.2-3.3,5.1-2.7,3.2-3.3,5-2.7,5.7-2.6,4.7-2.5,5.7-2.6,3.1-3.3,5-2.7,3.1-3.3,5-2.7,3.1-3.3,5-2.7,2.7-3.5,3.5-3,4.1-3,4.1-3,3.9-3,2.7-2.5,7.2-8,2.7-2.5,3.8-3,2.7-2.5,7.1-8,2.1-2.5,2.5-3.5,4.9-8,3.2-2,4.9-8,3.1-2,5.4-12.3,2.5-1.5,3.6-12,.4-1.2,6.8-16.1.4-1.1,2.8-11.1Z"/>
        <path id="MTN" class="cls-2" d="M4345.1,2931.9v9.7s0,9.7,0,9.7v9.8c0,0,.2,9.8.2,9.8l.2,9.8.2,9.8.2,9.8.3,9.7.3,9.7.3,9.6.3,9.6.4,9.5.4,9.5.4,9.4.5,9.3.5,9.2.5,9.2.5,9.1.5,9,.6,8.9.6,8.8.6,8.7.6,8.6.6,8.5.6,8.4.7,8.3.7,8.2.7,8.1.7,8,.7,7.9.7,7.8.7,7.7.7,7.6.7,7.5.7,7.4.8,7.3.8,7.2.8,7.1.8,7,.8,6.9.8,6.8.8,6.7.8,6.6.8,6.6.8,6.5.8,6.4.8,6.3.8,6.2.8,6.2.8,6.1.8,6,.8,5.9.8,5.9.8,5.8.8,5.7.8,5.7.8,5.6.8,5.5.8,5.5.8,5.4.8,5.4.8,5.3.8,5.3.8,5.2.8,5.2.8,5.1.8,5.1.8,5,.8,5,.8,5,.8,4.9.7,4.9.7,4.9.7,4.8.7,4.8.7,4.8.7,4.8.7,4.7.7,4.7.7,4.7.7,4.7.7,4.7.7,4.7.7,4.6.7,4.6.6,4.6.6,4.6.6,4.6.6,4.6.6,4.6.6,4.6.6,4.6.6,4.6.6,4.6.6,4.6.6,4.6.6,4.6.5,4.6.5,4.7.5,4.7.5,4.7.5,4.7.5,4.7.5,4.7.5,4.7.5,4.8.5,4.8.4,4.8.4,4.8.4,4.8.4,4.9.4,4.9.4,4.9.4,5,.4,5,.4,5,.3,5,.3,5.1.3,5.1.3,5.1.3,5.2.3,5.2.3,5.2.3,5.3.3,5.3.3,5.4.3,5.4.3,5.4.2,5.5.2,5.5.2,5.6.2,5.6.2,5.6.2,5.7.2,5.7.2,5.8.2,5.8.2,5.9.2,5.9.2,5.9v6c.1,0,.3,6,.3,6v6.1c.1,0,.2,6.1.2,6.1v6.2c.1,0,.2,6.2.2,6.2v6.3c.1,0,.2,6.3.2,6.3v6.4c0,0,.2,6.4.2,6.4v6.4c0,0,.1,6.5.1,6.5v6.5c0,0,.1,6.6.1,6.6v6.6s0,6.7,0,6.7v6.7s0,4.3,0,4.3l5.9-.3,2.3,2.3v6.8s6.1,1.3,6.1,1.3l2.1,5,6.1,1.2,2,5,23.1.9h1.7c0,0,71.5-10.6,71.5-10.6l2-.8,12.7-7.9,3.7-2.9,4.2-4,3.7-2.9,12.4-8.2,3.7-2.9,4.2-3.9,3.7-2.9,12.4-8.3,3.7-2.9,4.2-3.9,3.6-2.9,12.4-8.3,3.6-2.9,4.1-4,4-4.1,4-4,4-4,4-4,4-4,4-4,4-4,4-4,4-4,4-4,4-4,4-3.9,4-3.9,4-3.9,4-3.9,4-3.9,4-3.9,4-3.9,4-3.9,4-3.8,4-3.8,4-3.8,4-3.8,4-3.8,4-3.8,4-3.8,4-3.8,4-3.7,4-3.7,4-3.7,4-3.7,4-3.7,4-3.7,4-3.7,4-3.6,4-3.6,3.9-3.7,2.7-3.1,7.2-9.9,2.7-3,3.8-3.6,2.7-3,6.8-9.7,1.2-2.1,7.7-15.3.5-1.3,8.8-30.1.2-1,.4-17.6-.2-1-7.8-15.2-1.7-1.3-3.9-1.5-4-1.4-4-1.4-4.1-1.4-4.1-1.4-4.1-1.4-4.1-1.4-4.2-1.3-3.7-.7-13-1.1h-2.3c0,0-48.9,6.6-48.9,6.6l2.5-2.5,12.2-6.4,3.8-2.1,4.2-2.9,4.1-2.9,4.1-2.9,4.2-2.9,4.1-2.9,4-2.9,2.7-2.4,7.3-7.8,2.2-2.5,2.5-3.5-3.7-6.8-1.3-1.5-6.6-5.5-1.2-1.2-7.8-9.8-.9-1.1-7.7-9.8-.6-.9-8.6-18.2v-.6c-.1,0-1-35.5-1-35.5v-.6c0,0,8-24,8-24l.3-.8,7.9-15.6.5-1,8-15.6.5-1,8.2-15.5.7-1.1,7.9-11.2.9-1.2,7.9-11.1.7-1.1,8.6-15.6.7-1.1,8.1-11.2.9-1.2,8.2-11.3.9-1.3,8.2-11.4.7-1.1,8.9-16.4.6-1,9.1-16.9.8-1.5,4.1-8.4-6.3.8-4.9,1.5-4.6,1.8-2.9.3-52.6-8.4-1.8-.5-34.6-12.5-2.5-1-25.2-11.1-2.5-1.1-35.6-14.4-2.2-.9-36.1-14.9-3.1-1.5-15.6-9.2-3.9-2.3-15.7-9.4-4-2.1-17.5-7.1,4.2-21.3.7-2.2,8.5-19.6,1-2.2,8.7-19.7,1-2.2,9-19.8,1.4-2.5,8.2-10.7,3.2-2.8,4.8-2.7,5-2.6,5-2.5,4.9-2.5,4.9-2.5,4.9-2.5,4.9-2.5,4.9-2.5,4.9-2.5,4.9-2.4,4.8-2.6,2.2-2.7,5.7-22.1-4.1-26.2-.5-2.9-4-26.5-27.6-6.5-3-.5-26.7-2.1-3-.2-27-1.8-2.7-.3-38-4.3-1.6-.3-121.8-19h-1.1s-70.2,8.3-70.2,8.3l-2.8.6-8,1.2v4.2ZM4448.4,3586.5l-1.6-1.6-1.8-17.4,1.2-1.8,3.9-2.7,4.1-2.5,3-1,31.9-2.4,3.2.5,4.6,1.9,4.4,2,3,1.9,8.9,6,4,1.1-3.5,8.5-2.1,2.4-4.3,2.4-5.8,1.4-50.1,1.9-2.8-.6ZM4530.9,3607.8l1-2,3.6-18.5,20.6,2.3,8.6,3,3.2,1.7,4.2,1.9,4.3,1.8,4.3,1.8,4.4,1.7,3.9,1,12.5,3,2.7,1.8-8.3.8-15.2.3h-2.4c0,0-49.7,3.2-49.7,3.2l2.2-3.7Z"/>
        <path id="SEZ" class="cls-2" d="M5755.8,1851.3l2.9-1.4,10.8-6.7,2.7-1.7,11.1-6.6,2.5-1.3,19.8-8.6,3.3-1.7,5.5-2.6-4.4-4.9-4.9-3.7-5.4-3.3-5.4-3.3-5.3-3.3-5.3-3.4-5.1-3.5-3-2.9-13.3-19.1-1.8-2.5-9.3-11.4-2.3-2.9-9.4-11.2-3.4-3.2-4.8-3.5-4.8-3.4-4.8-3.4-4.8-3.4-4.8-3.4-4.9-3.3-4.2-2.2-13.9-5.4-3.5-1.3-13.8-5.4-4.1-2.2-4.8-3.2-4.1-2.2-13.6-5.3-3-.9-22.3-5.3-2.5-.6-22.1-5.3-2.9-.9-13.4-5-3.3-1.3-13.4-5-2.9-.9-21.8-5.2-2.4-.6-21.6-5.1-2.9-.6-14-2,3,5.5,4.6,3.3,3.9,2.2,13.1,5.3,3.3,1.2,13.2,5,3.3,1.2,13.3,5,3.3,1.3,13.3,5,3.3,1.3,13.4,5,3.4,1.3,13.5,5,3.4,1.3,13.5,5,3.4,1.3,13.5,5.3,4.1,2.2,4.7,3.3,4.7,3.4,4.8,3.3,4.1,2.2,13.6,5.6,4.1,2.2,4.8,3.3,4.8,3.4,4.8,3.4,4.8,3.4,4.8,3.4,4.8,3.4,4.9,3.4,4.8,3.5,3.4,3.2,9.6,11.2,1.1,2,12.9,42.6v2.1c.1,0-2.2,12.1-2.2,12.1l-.2,3.1,1.2,13.2,13-4.2ZM5486.3,1651.2l-6-1.4,3,5.5,6,1.4-3-5.5Z"/>
        <path id="SO" class="cls-2" d="M5554,4979.3l-14.6-39.3-1-1.7-8.3-9.1-2.1-2.3-8.2-9.3-2-2.4-8.2-9.3-3-2.4-3.7-1.3-12.4-1.9-3.1-.4-12.3-1.6h-2.4s-27.1,2.5-27.1,2.5l-1.9.4-18.1,7.1-1.7,1-23.2,17.2-1.6,1.3-15.8,13.7-2,2-8.7,9.9-2.2,2.5-8.5,9.6-2.1,2.4-8.4,9.2-2.1,2.2-8.2,8.5-2,2-8.1,7.8-2,1.8-7.8,7.2-2.1,2.6-2.2,3.7-2,2.5-7.7,5.7-2,1.2-7.8,4.5-1.9,1-7.6,4.1-2,1.7-1.9,2.7-1.8,2.8-1.8,2.7-1.8,2.6-1,3.1,1,2.7,3.8,4.4,4.4,3.7,5.1,3.3,28.1,3h1.2c0,0,20.1-4.2,20.1-4.2h.9c0-.1,59.3-13.8,59.3-13.8l.8-.2,38.1-9,1.6-.3,19.1-2.1h2.6c0-.1,12.1.1,12.1.1h3.1c0,0,12.3.2,12.3.2l2.7-.2,20.1-2.6,2.7-.5,13.2-3,6.9-3.3.9-4.1,7.9-11.3,2.3-3.7,1.4-4.1,2.8-13.3.9-4.2.7-5.8Z"/>
        <path id="PVZ" class="cls-2" d="M4423.1,3964.2v7s0,7.1,0,7.1v7.1s0,7.1,0,7.1v7.1s0,7.2,0,7.2v5.3s2.7-.2,2.7-.2l8.4,7.1,1.8,2.6,6.4,11,.5,1.7-.8,77.2v.4s-8.7,233.9-8.7,233.9l38.2,620.3-1,1.9-4.9,3.3-6.8,1.7v.9c.1,0,1.3,7.3,1.3,7.3l1.2,7.3,1.2,7.3,1.2,7.3,1.2,7.3,1.2,7.3,1.3,7.3,1.3,7.3,1.3,7.3,1.3,7.4,1.3,7.4.7,3.9,7.9-.4,4.9,1.6,4.1,3.1,12.1,10.4,5.2,2.1-5.8-58.4v-1.6c.1,0,5.7-20,5.7-20l.6-2.2,5.5-19.9.3-1.7,2.7-42.7v-1.2c0,0,3.9-42.5,3.9-42.5l.8-2.7,2-5.3-2.5-50.8v-1.4c0,0,5.2-27.7,5.2-27.7v-.9s-25.2-453.6-25.2-453.6l14.7-4.6,3.9-2.3,4.3-3.8,3.9-2.3,14.6-4.8,2.6-5.5,3.5-4.4,4-4.2,2.7-3.7,6.7-12.6,1.6-3.2,6.4-12.8.9-2.5,7.7-29.3.5-1.8,7.6-29.4.6-2.1,7.2-21.4.8-2.4,7.4-21.4,1.2-2.8,6.4-13.1,1.6-3.3,6.4-13.2,1.6-3.3,6.4-13.2,1.6-3.3,6.4-13.3,1.6-3.3,6.7-13.2,2.6-4,3.7-4.8,2.6-4,6.9-13.2,2.6-4,3.7-4.8,2.6-4,6.9-13.2,2.6-4,3.7-4.8,2.6-4,6.9-13.1,2.6-4,3.7-4.8,2.6-4,6.6-13.1,1.6-3.3,6.3-13.1.6-2.4.3-26.3-.6-2-6.4-9.1-2.5-2.4-3.8-2.5-4-2.2-3.6-1.3-12.4-2.4h-1.8c0,0-102.3,23.7-102.3,23.7h-.6c0,.1-95.5,16-95.5,16l-.3-3.5-47.9,8.3-2.3.3-6.5.4v3.2ZM5321.5,5064.7l20.1-4.2h.9c0-.1,59.3-13.8,59.3-13.8l.8-.2,38.1-9,1.6-.3,19.1-2.1h2.6c0-.1,12.1.1,12.1.1h3.1c0,0,12.3.2,12.3.2l2.7-.2,20.1-2.6,2.7-.5,13.2-3,6.9-3.3.9-4.1,7.9-11.3,2.3-3.7,1.4-4.1,2.8-13.3.9-4.2.7-5.8-14.6-39.3-1-1.7-8.3-9.1-2.1-2.3-8.2-9.3-2-2.4-8.2-9.3-3-2.4-3.7-1.3-12.4-1.9-3.1-.4-12.3-1.6h-2.4s-27.1,2.5-27.1,2.5l-1.9.4-18.1,7.1-1.7,1-23.2,17.2-1.6,1.3-15.8,13.7-2,2-8.7,9.9-2.2,2.5-8.5,9.6-2.1,2.4-8.4,9.2-2.1,2.2-8.2,8.5-2,2-8.1,7.8-2,1.8-7.8,7.2-2.1,2.6-2.2,3.7-2,2.5-7.7,5.7-2,1.2-7.8,4.5-1.9,1-7.6,4.1-2,1.7-1.9,2.7-1.8,2.8-1.8,2.7-1.8,2.6-1,3.1,1,2.7,3.8,4.4,4.4,3.7,5.1,3.3,28.1,3h1.2Z"/>
        <path id="IAD" class="cls-2" d="M4809.3,3544.8l-3.5-1.6-4-1.4-2.7-1.4-6.9-5.2-1.7-1.3-6.6-5.4-.5-.9-.6-58.7v-.5c.1,0,8.2-19.4,8.2-19.4l.4-.9,8-15.1.7-1.1,7.7-10.9.9-1.2,7.8-10.8.9-1.2,7.8-10.7.9-1.2,7.8-10.6.9-1.2,8-10.5,1.3-1.4,6.9-6.3,1.3-1.4,8.2-10.4,1.3-1.4,7-6.3,1.8-1.6,7-6.3,1.3-1.4,8.2-10.4.9-1.2,8.2-10.5,1.3-1.4,7-6.4,1.8-1.6,7-6.5,1.8-1.6,7-6.6,1.9-1.6,8.4-5.2,9.3-5,2.6-2.2-2.5-2.8-3.4-2.1-3.9-2-1.2-1.3-3.4-31.9-3.7-9.1-2.3-2.5-3.7-1.5-13.1-.9-4,.9-4.5,2.2-4.4,2.2-4.4,2.2-4.4,2.1-4.4,2.1-4.3,2.2-2.9,2-8.8,6.5-4.1,1-3.4,2.7-5.6,1.1-.2,5.1-4.1,8.4-.8,1.5-9.1,16.9-.6,1-8.9,16.4-.7,1.1-8.2,11.4-.9,1.3-8.2,11.3-.9,1.2-8.1,11.2-.7,1.1-8.6,15.6-.7,1.1-7.9,11.1-.9,1.2-7.9,11.2-.7,1.1-8.2,15.5-.5,1-8,15.6-.5,1-7.9,15.6-.3.8-7.9,24v.6c0,0,.7,35.5.7,35.5v.6c.1,0,8.7,18.2,8.7,18.2l.6.9,7.7,9.8.9,1.1,7.8,9.8,1.2,1.2,6.6,5.5,1.3,1.5,3.7,6.8h6.2c0,0,4.1,1.3,4.1,1.3l4.3,1.2,3.9.4,14.6-.7-2.6-2.4ZM4814,3550l6.2-.2-2-2.7h-6.2c0,.1,2,2.9,2,2.9Z"/>
        <path id="MED" class="cls-2" d="M4860.1,3246.9l-3.9-52.2-1.2-2.3-2.2-5.4-6.3-3.6-4.8-4.1-4.4-4.5-4.5-4.6-4.5-4.7-4.5-4.8-4.5-4.9-4.4-5-3-4.2-7.6-14.1-1.8-3.6-7.6-14.6-3-4.5-4.4-5.5-4.6-5.5-4.6-5.5-4.6-5.6-4.6-5.6-4.6-5.7-4.6-5.7-4.6-5.7-4.5-5.8-2.3-4.2-9.4-25.7-2.2-4.4-2.3-7.2-36.7-8.8-3.9-.3h-7.1c0-.1-5.7,22-5.7,22l-2.2,2.7-4.8,2.6-4.9,2.4-4.9,2.5-4.9,2.5-4.9,2.5-4.9,2.5-4.9,2.5-4.9,2.5-5,2.5-5,2.6-4.8,2.7-3.2,2.8-8.2,10.7-1.4,2.5-9,19.8-1,2.2-8.7,19.7-1,2.2-8.5,19.6-.7,2.2-4.2,21.3,17.5,7.1,4,2.1,15.7,9.4,3.9,2.3,15.6,9.2,3.1,1.5,36.1,14.9,2.2.9,35.6,14.4,2.5,1.1,25.2,11.1,2.5,1,34.6,12.5,1.8.5,52.6,8.4,2.9-.3,4.6-1.8,4.9-1.5,6.3-.8.2-5.1,3.4-2.7,5.6-1.2Z"/>
        <path id="SCH" class="cls-2" d="M4784.3,5070.4l-17.6-69.4-1-1.7-10.6-11.4-2.7-2.9-10.6-11.4-2.2-2.9-7.4-12.7-5-2.3-11.6-10.8-2.6-2.9-10.3-11.5-2.6-2.9-10.2-11.6-2.5-2.9-10.1-11.6-2.5-2.9-10-11.7-2.5-2.9-10.2-11.6-3.7-3.4-5.3-3.8-5.4-3.7-5.4-3.7-5.5-3.6-3.7-1.3-35.6-1-2.9.6-14.1,5.9-4,2.4-4.5,3.4-4,2.4-14.2,6.1-3.8,1.2-16.8,3.4-2,5.3-.8,2.7-3.8,42.5v1.2c0,0-2.8,42.7-2.8,42.7l-.3,1.7-5.5,19.9-.6,2.2-5.5,20v1.6c-.1,0,5.6,58.4,5.6,58.4l3.7,5.4,3.9,3.3,11,11.3,2.7,2.9,11.1,11.3,4.2,3.1,5.1,2.3,17.6,5.5,4.4,1.3,17.8,5.3,4.4,1.3,16.9,6.4,3.9,3.3,41-1.3,1.9-2.7,24.7-8.6,2.9-.8,25.8-7.1,3.3-1.1,14.9-5.9,3.7-1.5,14.4-6.1,4-2.4,4.3-3.5,4.1-3.6,4.1-3.6,4.1-3.6,4.1-3.5,4.1-3.5,4.1-3.5,3.9-3.5.8-2.1Z"/>
        <path id="PVR" class="cls-2" d="M4371.5,2494.4l.7,7.5.6,7.5.6,7.5.5,7.6.5,7.6.4,7.6.3,7.7.2,7.8v7.9s0,8.1,0,8.1l-.2,8.2-.3,8.3-.4,8.4-.5,8.4-.6,8.4-.6,8.5-.7,8.5-.7,8.5-.8,8.5-.8,8.5-.5,4.6,89.5-11.6,2.2-.3,15.6-5.7,4.5-2.3,5.1-3.5,4.9-3.6,4.9-3.6,4.9-3.6,4.8-3.5,4.8-3.5,4.8-3.5,4.7-3.5,4.7-3.5,4.7-3.4,4.6-3.4,4.6-3.4,4.6-3.4,4.5-3.5,1.3-2.2.3-99.2-4.4-3.1-10-13-3.3-4-2.4-1.3-158.1,21.1.5,5ZM4655,5137l1.9-2.7,24.7-8.6,2.9-.8,25.8-7.1,3.3-1.1,14.9-5.9,3.7-1.5,14.4-6.1,4-2.4,4.3-3.5,4.1-3.6,4.1-3.6,4.1-3.6,4.1-3.5,4.1-3.5,4.1-3.5,3.9-3.5.8-2.1-17.6-69.4-1-1.7-10.6-11.4-2.7-2.9-10.6-11.4-2.2-2.9-7.4-12.7.9-12.5v-2.3s-1.8-27.2-1.8-27.2l-1.7-7.1-7.5-2.1-3.6-5.4-12.5-35.2-.4-1.2-20.8-57.6-.3-.8-21.8-73.9v-.5c-.1,0-31.7-248.5-31.7-248.5l-2.3-.7-14.1-69.6-.2-1.2-9.6-37.2-.9-2.3-6.9-12.1-1.7-3-7.2-11.7-2.8-3.3-4.1-3.6-4.3-3.4-3.8-2.2-13.1-5.3-3.4-.9-14.8-2.2-14.6,4.8-3.9,2.3-4.3,3.8-3.9,2.3-14.7,4.6,25.2,453.6v.9s-5.1,27.7-5.1,27.7v1.4c0,0,2.4,50.8,2.4,50.8l-2,5.3-.8,2.7-3.8,42.5v1.2c0,0-2.8,42.7-2.8,42.7l-.3,1.7-5.5,19.9-.6,2.2-5.5,20v1.6c-.1,0,5.6,58.4,5.6,58.4l3.7,5.4,3.9,3.3,11,11.3,2.7,2.9,11.1,11.3,4.2,3.1,5.1,2.3,17.6,5.5,4.4,1.3,17.8,5.3,4.4,1.3,16.9,6.4,3.9,3.3,41-1.3Z"/>
        <path id="MD" class="cls-2" d="M4860.1,3246.9l-3.9-52.2-1.2-2.3-2.2-5.4-6.3-3.6-4.8-4.1-4.4-4.5-4.5-4.6-4.5-4.7-4.5-4.8-4.5-4.9-4.4-5-3-4.2-7.6-14.1-1.8-3.6-7.6-14.6-3-4.5-4.4-5.5-4.6-5.5-4.6-5.5-4.6-5.6-4.6-5.6-4.6-5.7-4.6-5.7-4.6-5.7-4.5-5.8-2.3-4.2-9.4-25.7-2.2-4.4-2.3-7.2-36.7-8.8-3.9-.3h-7.1c0-.1-5.7,22-5.7,22l-2.2,2.7-4.8,2.6-4.9,2.4-4.9,2.5-4.9,2.5-4.9,2.5-4.9,2.5-4.9,2.5-4.9,2.5-5,2.5-5,2.6-4.8,2.7-3.2,2.8-8.2,10.7-1.4,2.5-9,19.8-1,2.2-8.7,19.7-1,2.2-8.5,19.6-.7,2.2-4.2,21.3,17.5,7.1,4,2.1,15.7,9.4,3.9,2.3,15.6,9.2,3.1,1.5,36.1,14.9,2.2.9,35.6,14.4,2.5,1.1,25.2,11.1,2.5,1,34.6,12.5,1.8.5,52.6,8.4,2.9-.3,4.6-1.8,4.9-1.5,6.3-.8.2-5.1,3.4-2.7,5.6-1.2Z"/>
        <path id="SFO" class="cls-2" d="M4549.2,2489.7l-4.4-3.1-10-13-3.3-4-2.4-1.3-158.1,21.1.5,5,.7,7.5.6,7.5.6,7.5.5,7.6.5,7.6.4,7.6.3,7.7.2,7.8v7.9s0,8.1,0,8.1l-.2,8.2-.3,8.3-.4,8.4-.5,8.4-.6,8.4-.6,8.5-.7,8.5-.7,8.5-.8,8.5-.8,8.5-.5,4.6,89.5-11.6,2.2-.3,15.6-5.7,4.5-2.3,5.1-3.5,4.9-3.6,4.9-3.6,4.9-3.6,4.8-3.5,4.8-3.5,4.8-3.5,4.7-3.5,4.7-3.5,4.7-3.4,4.6-3.4,4.6-3.4,4.6-3.4,4.5-3.5,1.3-2.2.3-99.2Z"/>
      </g>
    </g>
  </g>
</svg>